HIERARCHY
ROOT pelvis
{
	OFFSET 0.003123 -0.351407 0.012037
	CHANNELS 6 Xposition Yposition Zposition Zrotation Yrotation Xrotation 
	JOINT left_hip
	{
		OFFSET 0.058189 -0.092763 -0.026001
		CHANNELS 3 Zrotation Yrotation Xrotation
		JOINT left_knee
		{
			OFFSET 0.054695 -0.378753 -0.009396
			CHANNELS 3 Zrotation Yrotation Xrotation
			JOINT left_ankle
			{
				OFFSET -0.043453 -0.403059 -0.031876
				CHANNELS 3 Zrotation Yrotation Xrotation
				JOINT left_foot
				{
					OFFSET 0.047257 -0.057997 0.118216
					CHANNELS 3 Zrotation Yrotation Xrotation
					End Site
					{
						OFFSET 0.000000 0.000000 0.000000
					}
				}
			}
		}
	}
	JOINT right_hip
	{
		OFFSET -0.063267 -0.103908 -0.021250
		CHANNELS 3 Zrotation Yrotation Xrotation
		JOINT right_knee
		{
			OFFSET -0.044210 -0.362380 -0.016824
			CHANNELS 3 Zrotation Yrotation Xrotation
			JOINT right_ankle
			{
				OFFSET 0.015417 -0.410728 -0.020192
				CHANNELS 3 Zrotation Yrotation Xrotation
				JOINT right_foot
				{
					OFFSET -0.038812 -0.058328 0.119049
					CHANNELS 3 Zrotation Yrotation Xrotation
					End Site
					{
						OFFSET 0.000000 0.000000 0.000000
					}
				}
			}
		}
	}
	JOINT spine_1
	{
		OFFSET -0.002763 0.109891 -0.027618
		CHANNELS 3 Zrotation Yrotation Xrotation
		JOINT spine_2
		{
			OFFSET 0.009448 0.131853 -0.005940
			CHANNELS 3 Zrotation Yrotation Xrotation
			JOINT spine_3
			{
				OFFSET -0.011330 0.052235 0.028447
				CHANNELS 3 Zrotation Yrotation Xrotation
				JOINT neck
				{
					OFFSET -0.012164 0.165167 -0.031615
					CHANNELS 3 Zrotation Yrotation Xrotation
					JOINT head
					{
						OFFSET 0.024783 0.160452 0.020737
						CHANNELS 3 Zrotation Yrotation Xrotation
						End Site
						{
							OFFSET 0.000000 0.000000 0.000000
						}
					}
				}
				JOINT left_collar
				{
					OFFSET 0.046364 0.084944 -0.007220
					CHANNELS 3 Zrotation Yrotation Xrotation
					JOINT left_shoulder
					{
						OFFSET 0.119239 0.057728 -0.015461
						CHANNELS 3 Zrotation Yrotation Xrotation
						JOINT left_elbow
						{
							OFFSET 0.254123 -0.072151 -0.042459
							CHANNELS 3 Zrotation Yrotation Xrotation
							JOINT left_wrist
							{
								OFFSET 0.251987 0.023221 -0.002472
								CHANNELS 3 Zrotation Yrotation Xrotation
								JOINT left_index_1
								{
									OFFSET 0.101902 -0.008688 0.019351
									CHANNELS 3 Zrotation Yrotation Xrotation
									JOINT left_index_2
									{
										OFFSET 0.030149 -0.011154 0.001151
										CHANNELS 3 Zrotation Yrotation Xrotation
										JOINT left_index_3
										{
											OFFSET 0.006504 -0.021577 -0.002433
											CHANNELS 3 Zrotation Yrotation Xrotation
											End Site
											{
												OFFSET 0.000000 0.000000 0.000000
											}
										}
									}
								}
								JOINT left_middle_1
								{
									OFFSET 0.109398 -0.006328 -0.003981
									CHANNELS 3 Zrotation Yrotation Xrotation
									JOINT left_middle_2
									{
										OFFSET 0.026472 -0.015218 -0.004641
										CHANNELS 3 Zrotation Yrotation Xrotation
										JOINT left_middle_3
										{
											OFFSET 0.005022 -0.023347 -0.001911
											CHANNELS 3 Zrotation Yrotation Xrotation
											End Site
											{
												OFFSET 0.000000 0.000000 0.000000
											}
										}
									}
								}
								JOINT left_pinky_1
								{
									OFFSET 0.084047 -0.014539 -0.043750
									CHANNELS 3 Zrotation Yrotation Xrotation
									JOINT left_pinky_2
									{
										OFFSET 0.012124 -0.014448 -0.005375
										CHANNELS 3 Zrotation Yrotation Xrotation
										JOINT left_pinky_3
										{
											OFFSET 0.003798 -0.018853 0.000167
											CHANNELS 3 Zrotation Yrotation Xrotation
											End Site
											{
												OFFSET 0.000000 0.000000 0.000000
											}
										}
									}
								}
								JOINT left_ring_1
								{
									OFFSET 0.097444 -0.009268 -0.027345
									CHANNELS 3 Zrotation Yrotation Xrotation
									JOINT left_ring_2
									{
										OFFSET 0.023561 -0.016057 -0.001895
										CHANNELS 3 Zrotation Yrotation Xrotation
										JOINT left_ring_3
										{
											OFFSET 0.004257 -0.023548 0.000814
											CHANNELS 3 Zrotation Yrotation Xrotation
											End Site
											{
												OFFSET 0.000000 0.000000 0.000000
											}
										}
									}
								}
								JOINT left_thumb_1
								{
									OFFSET 0.040636 -0.017977 0.025611
									CHANNELS 3 Zrotation Yrotation Xrotation
									JOINT left_thumb_2
									{
										OFFSET 0.021637 -0.017639 0.011623
										CHANNELS 3 Zrotation Yrotation Xrotation
										JOINT left_thumb_3
										{
											OFFSET 0.024002 -0.008356 0.006548
											CHANNELS 3 Zrotation Yrotation Xrotation
											End Site
											{
												OFFSET 0.000000 0.000000 0.000000
											}
										}
									}
								}
							}
						}
					}
				}
				JOINT right_collar
				{
					OFFSET -0.047695 0.084339 -0.013400
					CHANNELS 3 Zrotation Yrotation Xrotation
					JOINT right_shoulder
					{
						OFFSET -0.102578 0.053524 -0.012669
						CHANNELS 3 Zrotation Yrotation Xrotation
						JOINT right_elbow
						{
							OFFSET -0.271150 -0.036492 -0.026467
							CHANNELS 3 Zrotation Yrotation Xrotation
							JOINT right_wrist
							{
								OFFSET -0.249267 -0.004533 -0.015325
								CHANNELS 3 Zrotation Yrotation Xrotation
								JOINT right_index_1
								{
									OFFSET -0.099881 -0.011783 0.019600
									CHANNELS 3 Zrotation Yrotation Xrotation
									JOINT right_index_2
									{
										OFFSET -0.030148 -0.011154 0.001151
										CHANNELS 3 Zrotation Yrotation Xrotation
										JOINT right_index_3
										{
											OFFSET -0.006505 -0.021577 -0.002432
											CHANNELS 3 Zrotation Yrotation Xrotation
											End Site
											{
												OFFSET 0.000000 0.000000 0.000000
											}
										}
									}
								}
								JOINT right_middle_1
								{
									OFFSET -0.107376 -0.009422 -0.003734
									CHANNELS 3 Zrotation Yrotation Xrotation
									JOINT right_middle_2
									{
										OFFSET -0.026472 -0.015218 -0.004641
										CHANNELS 3 Zrotation Yrotation Xrotation
										JOINT right_middle_3
										{
											OFFSET -0.005022 -0.023347 -0.001911
											CHANNELS 3 Zrotation Yrotation Xrotation
											End Site
											{
												OFFSET 0.000000 0.000000 0.000000
											}
										}
									}
								}
								JOINT right_pinky_1
								{
									OFFSET -0.082027 -0.017634 -0.043503
									CHANNELS 3 Zrotation Yrotation Xrotation
									JOINT right_pinky_2
									{
										OFFSET -0.012123 -0.014448 -0.005374
										CHANNELS 3 Zrotation Yrotation Xrotation
										JOINT right_pinky_3
										{
											OFFSET -0.003798 -0.018852 0.000167
											CHANNELS 3 Zrotation Yrotation Xrotation
											End Site
											{
												OFFSET 0.000000 0.000000 0.000000
											}
										}
									}
								}
								JOINT right_ring_1
								{
									OFFSET -0.095423 -0.012362 -0.027099
									CHANNELS 3 Zrotation Yrotation Xrotation
									JOINT right_ring_2
									{
										OFFSET -0.023561 -0.016057 -0.001895
										CHANNELS 3 Zrotation Yrotation Xrotation
										JOINT right_ring_3
										{
											OFFSET -0.004257 -0.023548 0.000816
											CHANNELS 3 Zrotation Yrotation Xrotation
											End Site
											{
												OFFSET 0.000000 0.000000 0.000000
											}
										}
									}
								}
								JOINT right_thumb_1
								{
									OFFSET -0.038613 -0.021074 0.025861
									CHANNELS 3 Zrotation Yrotation Xrotation
									JOINT right_thumb_2
									{
										OFFSET -0.021636 -0.017639 0.011623
										CHANNELS 3 Zrotation Yrotation Xrotation
										JOINT right_thumb_3
										{
											OFFSET -0.024004 -0.008353 0.006547
											CHANNELS 3 Zrotation Yrotation Xrotation
											End Site
											{
												OFFSET 0.000000 0.000000 0.000000
											}
										}
									}
								}
							}
						}
					}
				}
			}
		}
	}
}
MOTION
Frames: 4
Frame Time: 0.050000
0.000027 1.040382 0.000587 -3.312946 -0.436760 -30.920730 1.852441 4.388217 35.276498 4.480236 -1.098670 4.896129 -10.254579 -0.177566 22.420823 0.000000 0.000000 0.000000 1.446921 -2.884564 20.439147 -5.296600 0.843173 6.500367 24.391894 18.810210 27.665830 0.000000 0.000000 0.000000 -9.666522 -0.265422 64.665178 9.163158 -9.204421 -30.254588 6.316642 16.607878 -0.018211 0.796983 -4.357112 19.160832 0.000000 0.000000 0.000000 -2.878469 -11.137986 4.710935 -11.423866 -46.311130 -13.539699 3.668146 -30.049350 0.773150 14.471565 -16.978959 -22.550954 10.041944 0.924437 -0.013307 24.149448 -2.261287 -15.070527 0.000000 0.000000 0.000000 4.927065 -4.575793 -1.928223 21.237500 -0.666299 -2.062573 0.000000 0.000000 0.000000 8.616494 -16.522221 -21.604798 -9.137271 -0.146250 0.005994 0.000000 0.000000 0.000000 -1.220458 -5.918968 -3.872420 13.716449 0.804539 -2.651574 0.000000 0.000000 0.000000 22.119093 21.701289 8.891092 -7.047314 0.717374 1.953182 0.000000 0.000000 0.000000 7.975024 9.500992 5.960934 18.645409 33.796968 0.483138 -35.023327 47.509886 -13.084185 -18.889528 -5.263668 -34.005742 -14.727620 -3.737686 2.083363 -18.364584 3.395906 -21.919360 0.000000 0.000000 0.000000 -7.398177 3.812505 -1.064690 -16.297572 -0.105499 -8.457496 0.000000 0.000000 0.000000 -5.330768 18.679304 -24.907184 -1.437030 -1.196267 3.629762 0.000000 0.000000 0.000000 3.724953 9.338821 -5.379626 -16.224241 -0.720865 -7.976779 0.000000 0.000000 0.000000 -20.552394 -17.064074 0.449424 14.783447 -8.367450 7.609168 0.000000 0.000000 0.000000 
-0.000091 1.039738 0.009827 -3.121960 0.417050 -31.084444 1.751985 4.374999 35.721620 4.562366 -1.166570 5.297287 -10.578514 -0.572747 22.294298 0.000000 0.000000 0.000000 1.005189 -2.901783 20.979104 -5.222445 0.880975 7.029094 23.821214 18.397519 27.363285 0.000000 0.000000 0.000000 -9.228445 -0.653756 63.799666 9.792677 -9.498846 -32.012025 5.050390 16.268601 1.944792 0.723361 -4.527727 19.958990 0.000000 0.000000 0.000000 -4.244199 -8.915999 3.315269 -14.428162 -46.581451 -12.765868 3.329308 -31.255417 0.903073 15.813384 -14.883794 -23.295923 10.078673 0.790783 -0.059042 24.796648 -2.046676 -15.104012 0.000000 0.000000 0.000000 6.101779 -4.516100 -1.732067 20.871938 -0.558058 -3.104301 0.000000 0.000000 0.000000 8.172490 -16.573146 -21.749031 -11.054751 0.117568 0.820306 0.000000 0.000000 0.000000 -0.735262 -7.393238 -4.834765 11.320319 1.051045 0.676292 0.000000 0.000000 0.000000 21.600095 21.193798 7.951835 -7.988465 4.702964 3.603382 0.000000 0.000000 0.000000 9.235408 9.090920 5.894347 21.245289 32.262705 0.795482 -34.412885 50.697308 -13.979203 -22.910100 -8.591501 -32.148145 -16.203186 -2.634127 1.793510 -15.990115 3.678109 -20.520677 0.000000 0.000000 0.000000 -7.903381 2.737789 -0.253910 -17.513550 -0.189298 -9.562736 0.000000 0.000000 0.000000 -6.163551 18.160430 -24.124349 1.967851 -1.098042 3.120976 0.000000 0.000000 0.000000 3.020396 7.801792 -4.369202 -14.396687 -0.888478 -6.235599 0.000000 0.000000 0.000000 -19.711588 -17.612090 1.206084 12.542835 -9.545981 7.742166 0.000000 0.000000 0.000000 
-0.000857 1.038448 0.020386 -2.767527 1.363955 -31.247178 1.619379 4.402861 36.592558 4.526337 -1.136339 5.151541 -10.880764 -1.002655 22.071975 0.000000 0.000000 0.000000 0.432247 -2.880281 21.385561 -5.050846 0.937532 7.950834 23.218703 18.426118 26.538205 0.000000 0.000000 0.000000 -8.722761 -1.074727 61.755536 9.419476 -9.114642 -29.762299 3.125961 15.774915 0.373458 0.567537 -4.760369 21.029774 0.000000 0.000000 0.000000 -5.158732 -8.459219 2.852475 -17.848250 -44.985008 -11.303470 3.031881 -32.712634 0.994738 15.537591 -13.307201 -20.856481 12.963174 0.539138 -0.202955 22.785916 -2.367608 -15.129613 0.000000 0.000000 0.000000 6.441757 -4.098592 -1.422971 20.209716 -0.660666 -3.367767 0.000000 0.000000 0.000000 8.571303 -16.645739 -21.478966 -12.698330 -0.143735 0.245237 0.000000 0.000000 0.000000 -0.706205 -7.405997 -4.820113 11.962706 0.680246 -2.539063 0.000000 0.000000 0.000000 21.027138 21.430451 8.882568 -4.897672 2.322443 2.066033 0.000000 0.000000 0.000000 10.518748 7.654235 5.145764 24.458989 28.770464 0.965486 -34.369277 55.942704 -15.910955 -23.461815 -8.597626 -27.307464 -17.060398 -1.705868 1.294923 -12.100845 3.081330 -16.544378 0.000000 0.000000 0.000000 -9.229522 3.140867 -0.253698 -16.467710 0.101106 -10.550628 0.000000 0.000000 0.000000 -4.313936 17.250345 -22.299760 -1.540916 -0.164652 0.389957 0.000000 0.000000 0.000000 1.667233 7.883509 -4.715650 -12.683234 -0.447219 -7.495724 0.000000 0.000000 0.000000 -17.895156 -18.216167 2.708352 10.841354 -9.659316 7.129219 0.000000 0.000000 0.000000 
-0.001269 1.038448 0.028305 -2.659975 2.488966 -31.262048 1.634982 4.258913 36.663971 4.503215 -1.181451 5.494683 -11.261262 -1.101917 22.383094 0.000000 0.000000 0.000000 0.205800 -2.915853 21.657210 -4.945224 0.973492 8.586180 22.520760 18.090680 25.982838 0.000000 0.000000 0.000000 -8.442189 -1.364113 60.748849 10.393029 -9.341615 -30.521264 2.038325 16.133036 1.452024 0.153321 -4.950605 22.032997 0.000000 0.000000 0.000000 -5.806220 -8.480740 2.659942 -19.876841 -43.047540 -10.434279 1.036993 -32.459734 1.548300 14.314718 -14.678283 -19.829917 11.960734 0.037883 -0.423155 25.147194 -2.376114 -14.256792 0.000000 0.000000 0.000000 6.742607 -4.847395 -1.860157 20.883852 -0.797206 -2.531999 0.000000 0.000000 0.000000 8.859544 -16.677521 -21.418329 -12.375935 -1.329443 -2.990056 0.000000 0.000000 0.000000 0.032976 -7.680005 -5.066829 10.655284 0.558290 -2.236166 0.000000 0.000000 0.000000 22.311621 21.437676 8.850201 -8.277649 2.853521 2.988864 0.000000 0.000000 0.000000 11.768359 7.005558 5.006637 26.166462 25.146063 0.666575 -31.950362 59.893850 -15.896238 -24.480212 -6.345748 -24.691608 -15.368233 -1.933213 0.945761 -12.471184 3.128742 -17.651922 0.000000 0.000000 0.000000 -7.669033 3.726339 -0.850981 -14.457736 -0.113559 -7.855440 0.000000 0.000000 0.000000 -4.802409 16.869998 -21.713438 4.850793 -0.546213 1.641937 0.000000 0.000000 0.000000 1.462330 7.478964 -4.441945 -8.644107 -0.261624 -5.475693 0.000000 0.000000 0.000000 -16.852128 -17.927894 3.196852 10.797858 -9.345459 6.705207 0.000000 0.000000 0.000000 
